<mxfile host="app.diagrams.net" agent="Mozilla/5.0 (Windows NT 10.0; Win64; x64) AppleWebKit/537.36 (KHTML, like Gecko) Chrome/127.0.0.0 Safari/537.36" version="24.7.10">
  <diagram id="R2lEEEUBdFMjLlhIrx00" name="Page-1">
    <mxGraphModel dx="1120" dy="468" grid="1" gridSize="10" guides="1" tooltips="1" connect="1" arrows="1" fold="1" page="1" pageScale="1" pageWidth="850" pageHeight="1100" math="0" shadow="0" extFonts="Permanent Marker^https://fonts.googleapis.com/css?family=Permanent+Marker">
      <root>
        <mxCell id="0" />
        <mxCell id="1" parent="0" />
        <mxCell id="2cuaNHPRhRFkctrDgR6S-1" value="Usuario" style="swimlane;fontStyle=0;childLayout=stackLayout;horizontal=1;startSize=30;horizontalStack=0;resizeParent=1;resizeParentMax=0;resizeLast=0;collapsible=1;marginBottom=0;whiteSpace=wrap;html=1;" parent="1" vertex="1">
          <mxGeometry x="50" y="20" width="170" height="180" as="geometry" />
        </mxCell>
        <mxCell id="2cuaNHPRhRFkctrDgR6S-2" value="id: INTEGER (PK)" style="text;strokeColor=none;fillColor=none;align=left;verticalAlign=middle;spacingLeft=4;spacingRight=4;overflow=hidden;points=[[0,0.5],[1,0.5]];portConstraint=eastwest;rotatable=0;whiteSpace=wrap;html=1;" parent="2cuaNHPRhRFkctrDgR6S-1" vertex="1">
          <mxGeometry y="30" width="170" height="30" as="geometry" />
        </mxCell>
        <mxCell id="2cuaNHPRhRFkctrDgR6S-3" value="login: VARCHAR(30) NN" style="text;strokeColor=none;fillColor=none;align=left;verticalAlign=middle;spacingLeft=4;spacingRight=4;overflow=hidden;points=[[0,0.5],[1,0.5]];portConstraint=eastwest;rotatable=0;whiteSpace=wrap;html=1;" parent="2cuaNHPRhRFkctrDgR6S-1" vertex="1">
          <mxGeometry y="60" width="170" height="30" as="geometry" />
        </mxCell>
        <mxCell id="2cuaNHPRhRFkctrDgR6S-4" value="password: VARCHAR(32)NN" style="text;strokeColor=none;fillColor=none;align=left;verticalAlign=middle;spacingLeft=4;spacingRight=4;overflow=hidden;points=[[0,0.5],[1,0.5]];portConstraint=eastwest;rotatable=0;whiteSpace=wrap;html=1;" parent="2cuaNHPRhRFkctrDgR6S-1" vertex="1">
          <mxGeometry y="90" width="170" height="30" as="geometry" />
        </mxCell>
        <mxCell id="2cuaNHPRhRFkctrDgR6S-7" value="nickname: VARCHAR(40)NN" style="text;strokeColor=none;fillColor=none;align=left;verticalAlign=middle;spacingLeft=4;spacingRight=4;overflow=hidden;points=[[0,0.5],[1,0.5]];portConstraint=eastwest;rotatable=0;whiteSpace=wrap;html=1;" parent="2cuaNHPRhRFkctrDgR6S-1" vertex="1">
          <mxGeometry y="120" width="170" height="30" as="geometry" />
        </mxCell>
        <mxCell id="2cuaNHPRhRFkctrDgR6S-8" value="email: VARCHAR(40)NN" style="text;strokeColor=none;fillColor=none;align=left;verticalAlign=middle;spacingLeft=4;spacingRight=4;overflow=hidden;points=[[0,0.5],[1,0.5]];portConstraint=eastwest;rotatable=0;whiteSpace=wrap;html=1;" parent="2cuaNHPRhRFkctrDgR6S-1" vertex="1">
          <mxGeometry y="150" width="170" height="30" as="geometry" />
        </mxCell>
        <mxCell id="2cuaNHPRhRFkctrDgR6S-15" value="" style="endArrow=none;html=1;rounded=0;exitX=0.006;exitY=0.067;exitDx=0;exitDy=0;exitPerimeter=0;entryX=0.971;entryY=0.067;entryDx=0;entryDy=0;entryPerimeter=0;" parent="2cuaNHPRhRFkctrDgR6S-1" source="2cuaNHPRhRFkctrDgR6S-3" target="2cuaNHPRhRFkctrDgR6S-3" edge="1">
          <mxGeometry width="50" height="50" relative="1" as="geometry">
            <mxPoint x="210" y="140" as="sourcePoint" />
            <mxPoint x="260" y="90" as="targetPoint" />
          </mxGeometry>
        </mxCell>
        <mxCell id="2cuaNHPRhRFkctrDgR6S-9" value="posts" style="swimlane;fontStyle=0;childLayout=stackLayout;horizontal=1;startSize=30;horizontalStack=0;resizeParent=1;resizeParentMax=0;resizeLast=0;collapsible=1;marginBottom=0;whiteSpace=wrap;html=1;" parent="1" vertex="1">
          <mxGeometry x="300" y="150" width="280" height="210" as="geometry" />
        </mxCell>
        <mxCell id="2cuaNHPRhRFkctrDgR6S-10" value="id: INTEGER (PK)" style="text;strokeColor=none;fillColor=none;align=left;verticalAlign=middle;spacingLeft=4;spacingRight=4;overflow=hidden;points=[[0,0.5],[1,0.5]];portConstraint=eastwest;rotatable=0;whiteSpace=wrap;html=1;" parent="2cuaNHPRhRFkctrDgR6S-9" vertex="1">
          <mxGeometry y="30" width="280" height="30" as="geometry" />
        </mxCell>
        <mxCell id="2cuaNHPRhRFkctrDgR6S-11" value="&lt;div&gt;&lt;br&gt;&lt;/div&gt;titulo: VARCHAR(150)&amp;nbsp;" style="text;strokeColor=none;fillColor=none;align=left;verticalAlign=middle;spacingLeft=4;spacingRight=4;overflow=hidden;points=[[0,0.5],[1,0.5]];portConstraint=eastwest;rotatable=0;whiteSpace=wrap;html=1;" parent="2cuaNHPRhRFkctrDgR6S-9" vertex="1">
          <mxGeometry y="60" width="280" height="30" as="geometry" />
        </mxCell>
        <mxCell id="2cuaNHPRhRFkctrDgR6S-12" value="fecha_publicacion:VARCHAR(32)NN" style="text;strokeColor=none;fillColor=none;align=left;verticalAlign=middle;spacingLeft=4;spacingRight=4;overflow=hidden;points=[[0,0.5],[1,0.5]];portConstraint=eastwest;rotatable=0;whiteSpace=wrap;html=1;" parent="2cuaNHPRhRFkctrDgR6S-9" vertex="1">
          <mxGeometry y="90" width="280" height="30" as="geometry" />
        </mxCell>
        <mxCell id="2cuaNHPRhRFkctrDgR6S-13" value="contenido: TEXT" style="text;strokeColor=none;fillColor=none;align=left;verticalAlign=middle;spacingLeft=4;spacingRight=4;overflow=hidden;points=[[0,0.5],[1,0.5]];portConstraint=eastwest;rotatable=0;whiteSpace=wrap;html=1;" parent="2cuaNHPRhRFkctrDgR6S-9" vertex="1">
          <mxGeometry y="120" width="280" height="30" as="geometry" />
        </mxCell>
        <mxCell id="2cuaNHPRhRFkctrDgR6S-16" value="" style="endArrow=none;html=1;rounded=0;entryX=0.012;entryY=0.067;entryDx=0;entryDy=0;entryPerimeter=0;exitX=0.988;exitY=0.033;exitDx=0;exitDy=0;exitPerimeter=0;" parent="2cuaNHPRhRFkctrDgR6S-9" source="2cuaNHPRhRFkctrDgR6S-11" target="2cuaNHPRhRFkctrDgR6S-11" edge="1">
          <mxGeometry width="50" height="50" relative="1" as="geometry">
            <mxPoint x="-90" y="190" as="sourcePoint" />
            <mxPoint x="-40" y="140" as="targetPoint" />
          </mxGeometry>
        </mxCell>
        <mxCell id="2cuaNHPRhRFkctrDgR6S-21" value="ususario_id: INTEGER FK" style="text;strokeColor=none;fillColor=none;align=left;verticalAlign=middle;spacingLeft=4;spacingRight=4;overflow=hidden;points=[[0,0.5],[1,0.5]];portConstraint=eastwest;rotatable=0;whiteSpace=wrap;html=1;" parent="2cuaNHPRhRFkctrDgR6S-9" vertex="1">
          <mxGeometry y="150" width="280" height="30" as="geometry" />
        </mxCell>
        <mxCell id="2cuaNHPRhRFkctrDgR6S-22" value="categoria_id: INTEGER FK" style="text;strokeColor=none;fillColor=none;align=left;verticalAlign=middle;spacingLeft=4;spacingRight=4;overflow=hidden;points=[[0,0.5],[1,0.5]];portConstraint=eastwest;rotatable=0;whiteSpace=wrap;html=1;" parent="2cuaNHPRhRFkctrDgR6S-9" vertex="1">
          <mxGeometry y="180" width="280" height="30" as="geometry" />
        </mxCell>
        <mxCell id="fwC4ajqlRkUCzQKDG-Qh-2" value="comentario" style="swimlane;fontStyle=0;childLayout=stackLayout;horizontal=1;startSize=30;horizontalStack=0;resizeParent=1;resizeParentMax=0;resizeLast=0;collapsible=1;marginBottom=0;whiteSpace=wrap;html=1;" vertex="1" parent="1">
          <mxGeometry x="630" y="20" width="170" height="150" as="geometry" />
        </mxCell>
        <mxCell id="fwC4ajqlRkUCzQKDG-Qh-3" value="id: INTEGER (PK)" style="text;strokeColor=none;fillColor=none;align=left;verticalAlign=middle;spacingLeft=4;spacingRight=4;overflow=hidden;points=[[0,0.5],[1,0.5]];portConstraint=eastwest;rotatable=0;whiteSpace=wrap;html=1;" vertex="1" parent="fwC4ajqlRkUCzQKDG-Qh-2">
          <mxGeometry y="30" width="170" height="30" as="geometry" />
        </mxCell>
        <mxCell id="fwC4ajqlRkUCzQKDG-Qh-4" value="comentario: TEXT" style="text;strokeColor=none;fillColor=none;align=left;verticalAlign=middle;spacingLeft=4;spacingRight=4;overflow=hidden;points=[[0,0.5],[1,0.5]];portConstraint=eastwest;rotatable=0;whiteSpace=wrap;html=1;" vertex="1" parent="fwC4ajqlRkUCzQKDG-Qh-2">
          <mxGeometry y="60" width="170" height="30" as="geometry" />
        </mxCell>
        <mxCell id="fwC4ajqlRkUCzQKDG-Qh-5" value="usuario_id: INTEGER FK" style="text;strokeColor=none;fillColor=none;align=left;verticalAlign=middle;spacingLeft=4;spacingRight=4;overflow=hidden;points=[[0,0.5],[1,0.5]];portConstraint=eastwest;rotatable=0;whiteSpace=wrap;html=1;" vertex="1" parent="fwC4ajqlRkUCzQKDG-Qh-2">
          <mxGeometry y="90" width="170" height="30" as="geometry" />
        </mxCell>
        <mxCell id="fwC4ajqlRkUCzQKDG-Qh-6" value="post_id: INTEGER FK" style="text;strokeColor=none;fillColor=none;align=left;verticalAlign=middle;spacingLeft=4;spacingRight=4;overflow=hidden;points=[[0,0.5],[1,0.5]];portConstraint=eastwest;rotatable=0;whiteSpace=wrap;html=1;" vertex="1" parent="fwC4ajqlRkUCzQKDG-Qh-2">
          <mxGeometry y="120" width="170" height="30" as="geometry" />
        </mxCell>
        <mxCell id="fwC4ajqlRkUCzQKDG-Qh-8" value="" style="endArrow=none;html=1;rounded=0;exitX=0.006;exitY=0.067;exitDx=0;exitDy=0;exitPerimeter=0;entryX=0.971;entryY=0.067;entryDx=0;entryDy=0;entryPerimeter=0;" edge="1" parent="fwC4ajqlRkUCzQKDG-Qh-2" source="fwC4ajqlRkUCzQKDG-Qh-4" target="fwC4ajqlRkUCzQKDG-Qh-4">
          <mxGeometry width="50" height="50" relative="1" as="geometry">
            <mxPoint x="210" y="140" as="sourcePoint" />
            <mxPoint x="260" y="90" as="targetPoint" />
          </mxGeometry>
        </mxCell>
        <mxCell id="fwC4ajqlRkUCzQKDG-Qh-9" value="CATEGORIAS" style="swimlane;fontStyle=0;childLayout=stackLayout;horizontal=1;startSize=30;horizontalStack=0;resizeParent=1;resizeParentMax=0;resizeLast=0;collapsible=1;marginBottom=0;whiteSpace=wrap;html=1;" vertex="1" parent="1">
          <mxGeometry x="110" y="410" width="170" height="90" as="geometry" />
        </mxCell>
        <mxCell id="fwC4ajqlRkUCzQKDG-Qh-10" value="id: INTEGER (PK)" style="text;strokeColor=none;fillColor=none;align=left;verticalAlign=middle;spacingLeft=4;spacingRight=4;overflow=hidden;points=[[0,0.5],[1,0.5]];portConstraint=eastwest;rotatable=0;whiteSpace=wrap;html=1;" vertex="1" parent="fwC4ajqlRkUCzQKDG-Qh-9">
          <mxGeometry y="30" width="170" height="30" as="geometry" />
        </mxCell>
        <mxCell id="fwC4ajqlRkUCzQKDG-Qh-11" value="categoria: VARCHAR(30)" style="text;strokeColor=none;fillColor=none;align=left;verticalAlign=middle;spacingLeft=4;spacingRight=4;overflow=hidden;points=[[0,0.5],[1,0.5]];portConstraint=eastwest;rotatable=0;whiteSpace=wrap;html=1;" vertex="1" parent="fwC4ajqlRkUCzQKDG-Qh-9">
          <mxGeometry y="60" width="170" height="30" as="geometry" />
        </mxCell>
        <mxCell id="fwC4ajqlRkUCzQKDG-Qh-14" value="" style="endArrow=none;html=1;rounded=0;exitX=0.006;exitY=0.067;exitDx=0;exitDy=0;exitPerimeter=0;entryX=0.971;entryY=0.067;entryDx=0;entryDy=0;entryPerimeter=0;" edge="1" parent="fwC4ajqlRkUCzQKDG-Qh-9" source="fwC4ajqlRkUCzQKDG-Qh-11" target="fwC4ajqlRkUCzQKDG-Qh-11">
          <mxGeometry width="50" height="50" relative="1" as="geometry">
            <mxPoint x="210" y="140" as="sourcePoint" />
            <mxPoint x="260" y="90" as="targetPoint" />
          </mxGeometry>
        </mxCell>
        <mxCell id="fwC4ajqlRkUCzQKDG-Qh-15" value="ETIQUETAS" style="swimlane;fontStyle=0;childLayout=stackLayout;horizontal=1;startSize=30;horizontalStack=0;resizeParent=1;resizeParentMax=0;resizeLast=0;collapsible=1;marginBottom=0;whiteSpace=wrap;html=1;" vertex="1" parent="1">
          <mxGeometry x="590" y="410" width="190" height="90" as="geometry" />
        </mxCell>
        <mxCell id="fwC4ajqlRkUCzQKDG-Qh-16" value="id: INTEGER (PK)" style="text;strokeColor=none;fillColor=none;align=left;verticalAlign=middle;spacingLeft=4;spacingRight=4;overflow=hidden;points=[[0,0.5],[1,0.5]];portConstraint=eastwest;rotatable=0;whiteSpace=wrap;html=1;" vertex="1" parent="fwC4ajqlRkUCzQKDG-Qh-15">
          <mxGeometry y="30" width="190" height="30" as="geometry" />
        </mxCell>
        <mxCell id="fwC4ajqlRkUCzQKDG-Qh-17" value="nombre_etiqueta: VARCHAR(30)" style="text;strokeColor=none;fillColor=none;align=left;verticalAlign=middle;spacingLeft=4;spacingRight=4;overflow=hidden;points=[[0,0.5],[1,0.5]];portConstraint=eastwest;rotatable=0;whiteSpace=wrap;html=1;" vertex="1" parent="fwC4ajqlRkUCzQKDG-Qh-15">
          <mxGeometry y="60" width="190" height="30" as="geometry" />
        </mxCell>
        <mxCell id="fwC4ajqlRkUCzQKDG-Qh-18" value="" style="endArrow=none;html=1;rounded=0;exitX=0.006;exitY=0.067;exitDx=0;exitDy=0;exitPerimeter=0;entryX=0.971;entryY=0.067;entryDx=0;entryDy=0;entryPerimeter=0;" edge="1" parent="fwC4ajqlRkUCzQKDG-Qh-15" source="fwC4ajqlRkUCzQKDG-Qh-17" target="fwC4ajqlRkUCzQKDG-Qh-17">
          <mxGeometry width="50" height="50" relative="1" as="geometry">
            <mxPoint x="210" y="140" as="sourcePoint" />
            <mxPoint x="260" y="90" as="targetPoint" />
          </mxGeometry>
        </mxCell>
        <mxCell id="fwC4ajqlRkUCzQKDG-Qh-19" value="" style="edgeStyle=entityRelationEdgeStyle;fontSize=12;html=1;endArrow=ERoneToMany;rounded=0;exitX=1.018;exitY=-0.133;exitDx=0;exitDy=0;entryX=-0.024;entryY=0.1;entryDx=0;entryDy=0;entryPerimeter=0;exitPerimeter=0;" edge="1" parent="1" source="2cuaNHPRhRFkctrDgR6S-2" target="fwC4ajqlRkUCzQKDG-Qh-2">
          <mxGeometry width="100" height="100" relative="1" as="geometry">
            <mxPoint x="490" y="330" as="sourcePoint" />
            <mxPoint x="590" y="230" as="targetPoint" />
          </mxGeometry>
        </mxCell>
        <mxCell id="fwC4ajqlRkUCzQKDG-Qh-22" value="" style="edgeStyle=entityRelationEdgeStyle;fontSize=12;html=1;endArrow=ERoneToMany;rounded=0;entryX=-0.014;entryY=0.052;entryDx=0;entryDy=0;entryPerimeter=0;exitX=0.988;exitY=0.1;exitDx=0;exitDy=0;exitPerimeter=0;" edge="1" parent="1" target="2cuaNHPRhRFkctrDgR6S-9">
          <mxGeometry width="100" height="100" relative="1" as="geometry">
            <mxPoint x="216.00000000000003" y="20" as="sourcePoint" />
            <mxPoint x="300.00000000000006" y="155.10000000000002" as="targetPoint" />
            <Array as="points">
              <mxPoint x="68.04" y="342" />
            </Array>
          </mxGeometry>
        </mxCell>
        <mxCell id="fwC4ajqlRkUCzQKDG-Qh-23" value="" style="edgeStyle=entityRelationEdgeStyle;fontSize=12;html=1;endArrow=ERoneToMany;rounded=0;exitX=0.5;exitY=0;exitDx=0;exitDy=0;entryX=0;entryY=0.1;entryDx=0;entryDy=0;entryPerimeter=0;" edge="1" parent="1" source="fwC4ajqlRkUCzQKDG-Qh-9" target="2cuaNHPRhRFkctrDgR6S-9">
          <mxGeometry width="100" height="100" relative="1" as="geometry">
            <mxPoint x="490" y="330" as="sourcePoint" />
            <mxPoint x="300" y="180" as="targetPoint" />
          </mxGeometry>
        </mxCell>
        <mxCell id="fwC4ajqlRkUCzQKDG-Qh-24" value="" style="edgeStyle=entityRelationEdgeStyle;fontSize=12;html=1;endArrow=ERoneToMany;rounded=0;exitX=1.014;exitY=0.067;exitDx=0;exitDy=0;exitPerimeter=0;entryX=0.012;entryY=0.067;entryDx=0;entryDy=0;entryPerimeter=0;" edge="1" parent="1" source="2cuaNHPRhRFkctrDgR6S-9" target="fwC4ajqlRkUCzQKDG-Qh-2">
          <mxGeometry width="100" height="100" relative="1" as="geometry">
            <mxPoint x="497.04" y="182.99" as="sourcePoint" />
            <mxPoint x="630" y="40" as="targetPoint" />
          </mxGeometry>
        </mxCell>
        <mxCell id="fwC4ajqlRkUCzQKDG-Qh-25" value="" style="edgeStyle=entityRelationEdgeStyle;fontSize=12;html=1;endArrow=ERmany;startArrow=ERmany;rounded=0;entryX=1.014;entryY=0.081;entryDx=0;entryDy=0;entryPerimeter=0;exitX=0.547;exitY=0.033;exitDx=0;exitDy=0;exitPerimeter=0;" edge="1" parent="1" source="fwC4ajqlRkUCzQKDG-Qh-15" target="2cuaNHPRhRFkctrDgR6S-9">
          <mxGeometry width="100" height="100" relative="1" as="geometry">
            <mxPoint x="710" y="390" as="sourcePoint" />
            <mxPoint x="590" y="230" as="targetPoint" />
          </mxGeometry>
        </mxCell>
      </root>
    </mxGraphModel>
  </diagram>
</mxfile>
